<?xml version="1.0" encoding="UTF-8" standalone="no"?>
<svg
   xmlns:dc="http://purl.org/dc/elements/1.1/"
   xmlns:cc="http://creativecommons.org/ns#"
   xmlns:rdf="http://www.w3.org/1999/02/22-rdf-syntax-ns#"
   xmlns:svg="http://www.w3.org/2000/svg"
   xmlns="http://www.w3.org/2000/svg"
   xmlns:sodipodi="http://sodipodi.sourceforge.net/DTD/sodipodi-0.dtd"
   xmlns:inkscape="http://www.inkscape.org/namespaces/inkscape"
   width="150mm"
   height="46mm"
   viewBox="0 0 150 46"
   version="1.1"
   id="svg8"
   inkscape:version="1.0.2-2 (e86c870879, 2021-01-15)"
   sodipodi:docname="drem-logo.svg">
  <defs
     id="defs2">
    <pattern
       id="EMFhbasepattern"
       patternUnits="userSpaceOnUse"
       width="6"
       height="6"
       x="0"
       y="0" />
  </defs>
  <sodipodi:namedview
     id="base"
     pagecolor="#ffffff"
     bordercolor="#666666"
     borderopacity="1.0"
     inkscape:pageopacity="0.0"
     inkscape:pageshadow="2"
     inkscape:zoom="1.4"
     inkscape:cx="209.71241"
     inkscape:cy="1.0172176"
     inkscape:document-units="mm"
     inkscape:current-layer="layer1"
     inkscape:document-rotation="0"
     showgrid="true"
     showguides="true"
     inkscape:guide-bbox="true"
     inkscape:window-width="1920"
     inkscape:window-height="1017"
     inkscape:window-x="-8"
     inkscape:window-y="493"
     inkscape:window-maximized="1">
    <sodipodi:guide
       position="143.40417,226.88542"
       orientation="0,-1"
       id="guide39" />
    <sodipodi:guide
       position="49.444861,218.42277"
       orientation="0,-1"
       id="guide41" />
    <sodipodi:guide
       position="29.104165,215.16816"
       orientation="1,0"
       id="guide43" />
    <inkscape:grid
       type="xygrid"
       id="grid45"
       snapvisiblegridlinesonly="true"
       visible="true" />
    <sodipodi:guide
       position="75.670832,209.68751"
       orientation="0,-1"
       id="guide47" />
    <sodipodi:guide
       position="109.5375,214.45001"
       orientation="1,0"
       id="guide49" />
    <sodipodi:guide
       position="66.674998,195.40001"
       orientation="0,-1"
       id="guide51" />
    <sodipodi:guide
       position="28.575,192.48958"
       orientation="0,-1"
       id="guide53" />
    <sodipodi:guide
       position="28.839583,188.25625"
       orientation="0,-1"
       id="guide55" />
    <sodipodi:guide
       position="103.71666,204.39584"
       orientation="0,-1"
       id="guide57" />
    <sodipodi:guide
       position="76.729165,214.97917"
       orientation="1,0"
       id="guide914" />
    <sodipodi:guide
       position="149.48959,285.09376"
       orientation="1,0"
       id="guide918" />
    <sodipodi:guide
       position="11.90625,250.69792"
       orientation="0,-1"
       id="guide920" />
  </sodipodi:namedview>
  <metadata
     id="metadata5">
    <rdf:RDF>
      <cc:Work
         rdf:about="">
        <dc:format>image/svg+xml</dc:format>
        <dc:type
           rdf:resource="http://purl.org/dc/dcmitype/StillImage" />
        <dc:title></dc:title>
      </cc:Work>
    </rdf:RDF>
  </metadata>
  <g
     inkscape:label="Vrstva 1"
     inkscape:groupmode="layer"
     id="layer1">
    <circle
       id="path23"
       style="fill:#007236;fill-opacity:1;stroke:#000000;stroke-width:0.264583"
       cx="1.4741085"
       cy="31.523212"
       r="0.024976548" />
    <path
       style="fill:#007236;fill-opacity:1;stroke:none;stroke-width:0.264583px;stroke-linecap:butt;stroke-linejoin:miter;stroke-opacity:1"
       d="m 0.52916703,12.246425 c 2e-6,19.768149 2e-6,19.768149 2e-6,19.768149 l 28.31041597,10e-6 11.377084,-10.583333 v -11.1125 l -10.583334,-9.78958667 -19.8437497,2e-6 -9.26041827,8.46264837 c 0,0 20.34069597,0.133635 23.19968397,0.06475 2.877746,-0.06934 6.875723,1.8313183 6.948668,6.5181193 0.07559,4.856997 -1.640167,7.56159 -6.96963,7.485993 -4.916829,-0.06974 -13.229167,-0.13364 -13.229167,-0.13364 l 0.01147,-10.78182 z"
       id="path29"
       sodipodi:nodetypes="ccccccccsssccc" />
    <path
       style="fill:#f5d731;fill-opacity:1;stroke:#007236;stroke-width:0.264583px;stroke-linecap:butt;stroke-linejoin:miter;stroke-opacity:1"
       d="M 0.52916703,39.158334 H 32.279169 L 48.154167,24.341667 64.029169,39.158334 h 84.666671 v -4.23333 H 67.204168 l -19.049999,-17.19792 -18.520834,17.19792 -29.10416797,-0.008 z"
       id="path31"
       sodipodi:nodetypes="ccccccccccc" />
    <path
       style="fill:#007236;fill-opacity:1;stroke:none;stroke-width:0.264583px;stroke-linecap:butt;stroke-linejoin:miter;stroke-opacity:1"
       d="m 63.288444,8.9848237 c 0.661458,0.09449 4.992955,0.993748 5.087451,4.5845223 0.09449,3.590774 -3.552976,4.15773 -3.552976,4.15773 l -12.7,-1e-6 15.345833,14.287499 h 10.05417 l -9.789587,-8.995822 c 0,0 9.524997,0.529166 9.564137,-10.591202 C 77.321472,5.6181164 70.203705,1.0949773 67.179896,0.71700234 64.156087,0.33902634 33.602085,0.52916533 33.602085,0.52916533 l 9.260417,8.46264937 c 0,0 19.764483,-0.101481 20.425942,-0.007 z"
       id="path33"
       sodipodi:nodetypes="sscccccssccs" />
    <path
       style="fill:#007236;fill-opacity:1;stroke:none;stroke-width:0.264583px;stroke-linecap:butt;stroke-linejoin:miter;stroke-opacity:1"
       d="m 134.14376,20.372917 3.96875,11.641657 h 10.58333 L 139.43543,0.52916433 h -5.29167 l -6.61458,13.22916967 -5.29167,-13.22916967 -5.29167,2e-6 -9.26041,25.13541767 H 87.841672 v -3.96875 h 10.58333 L 108.47918,12.435417 H 80.962502 v 19.579167 c 10.23056,0 1.42981,1e-5 34.660428,-10e-6 l 4.49791,-11.641657 7.40834,11.641657"
       id="path35"
       sodipodi:nodetypes="cccccccccccccccccc" />
    <path
       style="fill:#007236;fill-opacity:1;stroke:none;stroke-width:0.264583px;stroke-linecap:butt;stroke-linejoin:miter;stroke-opacity:1"
       d="m 80.962502,8.9918127 22.754178,2e-6 8.99583,-8.46265337 -31.750008,3e-6 z"
       id="path37"
       sodipodi:nodetypes="ccccc" />
    <text
       xml:space="preserve"
       style="font-style:normal;font-weight:normal;font-size:5.86309px;line-height:1.15;font-family:sans-serif;word-spacing:-0.521254px;fill:#007236;fill-opacity:1;stroke:none;stroke-width:0.274834"
       x="-0.05808368"
       y="45.859394"
       id="text61"><tspan
         sodipodi:role="line"
         id="tspan59"
         x="-0.05808368"
         y="45.859394"
         style="font-style:normal;font-variant:normal;font-weight:bold;font-stretch:normal;font-size:5.86309px;font-family:sans-serif;-inkscape-font-specification:'sans-serif Bold';fill:#007236;fill-opacity:1;stroke-width:0.274834"
         dx="0">DECENTRALIZED REAL ESTATE MARKETPLACE</tspan></text>
    <circle
       style="opacity:1;fill:#007236;fill-opacity:1;stroke-width:0.18159"
       id="path63"
       cx="48.133701"
       cy="34.714642"
       r="4.4301543" />
    <path
       style="display:none;fill:none;stroke:#000000;stroke-width:0.264583px;stroke-linecap:butt;stroke-linejoin:miter;stroke-opacity:1"
       d="M 58.208333,76.729167 95.250006,111.12501"
       id="path892"
       sodipodi:nodetypes="cc" />
    <path
       style="display:none;fill:none;stroke:#000000;stroke-width:0.264583px;stroke-linecap:butt;stroke-linejoin:miter;stroke-opacity:1"
       d="M 86.430446,78.366193 49.388776,112.76203"
       id="path892-0"
       sodipodi:nodetypes="cc" />
  </g>
</svg>
